Coordinates
version=1
nRows=7
nColumns=40
inDegrees=yes

Units are S.I. units (second, meters, Newtons, ...)
Angles are in degrees.

endheader
time	pelvis_tilt	pelvis_list	pelvis_rotation	pelvis_tx	pelvis_ty	pelvis_tz	hip_flexion_r	hip_adduction_r	hip_rotation_r	knee_angle_r	knee_angle_r_beta	ankle_angle_r	subtalar_angle_r	mtp_angle_r	hip_flexion_l	hip_adduction_l	hip_rotation_l	knee_angle_l	knee_angle_l_beta	ankle_angle_l	subtalar_angle_l	mtp_angle_l	lumbar_extension	lumbar_bending	lumbar_rotation	arm_flex_r	arm_add_r	arm_rot_r	elbow_flex_r	pro_sup_r	wrist_flex_r	wrist_dev_r	arm_flex_l	arm_add_l	arm_rot_l	elbow_flex_l	pro_sup_l	wrist_flex_l	wrist_dev_l
      9.33000000	      1.83980193	     -1.69439475	     -1.42300235	      1.01365311	      0.93402933	      0.40307881	      7.81538141	    -10.68209927	     -5.25490079	     46.35355822	     46.35355822	      0.72514020	    -14.57053791	    -23.07510848	      9.91074545	     -0.09976328	     -4.26244880	     24.24453285	     24.24453285	     15.26920083	    -15.97927659	      2.37428586	     -7.22086778	      6.05001175	      1.31356386	     17.63441954	    -17.39202628	    -10.47294758	     53.83972520	     44.91159837	      0.00000000	      0.00000000	     21.47456060	    -16.64955222	     14.00881422	     36.70727730	     45.07105661	      0.00000000	      0.00000000
      9.35178571	      2.01976490	     -1.66827677	     -2.05627037	      1.01339906	      0.93354125	      0.40129460	      9.51209415	    -10.98831039	     -4.38932283	     49.45556862	     49.45556862	     -1.09464789	    -15.75584258	    -22.67484429	      9.52640680	      0.03958844	     -4.76401350	     24.52085446	     24.52085446	     15.59225873	    -16.17870945	      2.39044643	     -7.45129850	      6.30877573	      1.21485818	     14.21831755	    -16.84464174	    -10.36591371	     51.72950991	     44.97289205	      0.00000000	      0.00000000	     23.26789660	    -17.02848733	     13.64611916	     38.06358693	     45.15029687	      0.00000000	      0.00000000
      9.37357143	      2.24411601	     -1.80301850	     -2.67462128	      1.01307728	      0.93312763	      0.39969617	     11.14192685	    -11.00034914	     -3.54128593	     52.51996176	     52.51996176	     -2.29265035	    -16.39616882	    -20.09103223	      9.17890103	     -0.00959735	     -5.21956021	     25.01923872	     25.01923872	     16.38443925	    -16.17081997	      3.35222217	     -7.78083901	      6.72040862	      1.03676742	     11.69924190	    -15.76301819	    -11.84622296	     46.98662964	     45.23943305	      0.00000000	      0.00000000	     24.66456551	    -17.72636467	     13.06721738	     40.91594555	     45.30326264	      0.00000000	      0.00000000
      9.39535714	      2.37861497	     -1.77677408	     -3.30571265	      1.01261322	      0.93240484	      0.39817702	     12.82657075	    -11.21422603	     -2.82690183	     55.33549779	     55.33549779	     -3.79962685	    -17.05569913	    -19.06999444	      8.87662758	      0.13869038	     -5.64796782	     25.35897980	     25.35897980	     16.74021832	    -16.46255815	      3.39473998	     -8.07794712	      6.95441311	      0.99659863	      8.36075643	    -15.22262518	    -11.80284571	     44.65569828	     45.31041534	      0.00000000	      0.00000000	     26.65597896	    -18.15668113	     12.60149647	     42.30968203	     45.39406796	      0.00000000	      0.00000000
      9.41714286	      2.46808905	     -1.88686933	     -3.97834774	      1.01205513	      0.93175054	      0.39706199	     14.45902405	    -11.13582269	     -2.12719485	     57.83936006	     57.83936006	     -4.57458321	    -17.29999933	    -16.58788335	      8.61536985	      0.08069292	     -6.20502515	     25.70955573	     25.70955573	     17.19406644	    -16.55576528	      3.61892355	     -8.41638722	      7.34388494	      1.48626843	      5.14919574	    -14.83305505	    -12.02504508	     41.21025369	     45.44198218	      0.00000000	      0.00000000	     28.71925452	    -18.31948156	     12.03853094	     44.27573115	     45.50371037	      0.00000000	      0.00000000
      9.43892857	      2.59452404	     -2.02682021	     -4.58456724	      1.01144698	      0.93142743	      0.39639452	     16.02683840	    -10.90055516	     -1.51855773	     60.23512611	     60.23512611	     -3.07913904	    -16.07105210	     -8.77343902	      8.27909960	     -0.03501374	     -6.73026430	     26.01828995	     26.01828995	     17.98781472	    -16.36670272	      4.60652153	     -8.72779243	      7.68948020	      0.58555995	      4.27005479	    -13.55970014	    -13.75534640	     34.80242259	     45.81319947	      0.00000000	      0.00000000	     29.79001807	    -19.56321428	     10.82214955	     46.59037632	     45.70955796	      0.00000000	      0.00000000
      9.46071429	      2.61403304	     -2.02416037	     -5.26313712	      1.01073723	      0.93101496	      0.39605369	     17.35517661	    -10.89315184	     -1.11925583	     61.54591130	     61.54591130	     -3.46424362	    -16.10480360	     -8.15739465	      7.95234955	      0.00732055	     -7.29163826	     26.06158695	     26.06158695	     18.27481373	    -16.45599263	      4.60094518	     -9.02583796	      7.85548381	      0.63355202	      1.35650093	    -12.98939046	    -13.79139840	     32.93977424	     45.87290587	      0.00000000	      0.00000000	     31.63793114	    -20.10303503	     10.20451720	     47.94243690	     45.80701694	      0.00000000	      0.00000000
